HIERARCHY
ROOT Hips
{
	OFFSET -3.958830 18.904000 13.208200
	CHANNELS 6 Xposition Yposition Zposition Zrotation Yrotation Xrotation 
	JOINT LHipJoint
	{
		OFFSET 0.000000 0.000000 0.000000
		CHANNELS 3 Zrotation Yrotation Xrotation
		JOINT LeftUpLeg
		{
			OFFSET 1.800000 -1.400000 0.085000
			CHANNELS 3 Zrotation Yrotation Xrotation
			JOINT LeftLeg
			{
				OFFSET 2.215000 -6.000000 0.000000
				CHANNELS 3 Zrotation Yrotation Xrotation
				JOINT LeftFoot
				{
					OFFSET 2.500000 -6.900000 0.000000
					CHANNELS 3 Zrotation Yrotation Xrotation
					JOINT LeftToeBase
					{
						OFFSET 0.200000 -0.500000 1.950000
						CHANNELS 3 Zrotation Yrotation Xrotation
						End Site
						{
							OFFSET 0.000000 0.000000 0.000000
						}
					}
				}
			}
		}
	}
	JOINT RHipJoint
	{
		OFFSET 0.000000 0.000000 0.000000
		CHANNELS 3 Zrotation Yrotation Xrotation
		JOINT RightUpLeg
		{
			OFFSET -1.800000 -1.400000 0.085000
			CHANNELS 3 Zrotation Yrotation Xrotation
			JOINT RightLeg
			{
				OFFSET -2.215000 -6.000000 0.000000
				CHANNELS 3 Zrotation Yrotation Xrotation
				JOINT RightFoot
				{
					OFFSET -2.500000 -6.900000 0.000000
					CHANNELS 3 Zrotation Yrotation Xrotation
					JOINT RightToeBase
					{
						OFFSET -0.200000 -0.500000 1.950000
						CHANNELS 3 Zrotation Yrotation Xrotation
						End Site
						{
							OFFSET 0.000000 0.000000 0.000000
						}
					}
				}
			}
		}
	}
	JOINT LowerBack
	{
		OFFSET 0.000000 0.000000 0.000000
		CHANNELS 3 Zrotation Yrotation Xrotation
		JOINT Spine
		{
			OFFSET -0.087000 1.940000 -0.288900
			CHANNELS 3 Zrotation Yrotation Xrotation
			JOINT Spine1
			{
				OFFSET 0.000000 1.950000 0.060000
				CHANNELS 3 Zrotation Yrotation Xrotation
				JOINT Neck
				{
					OFFSET 0.000000 0.000000 0.000000
					CHANNELS 3 Zrotation Yrotation Xrotation
					JOINT Neck1
					{
						OFFSET 0.000000 1.600000 0.340000
						CHANNELS 3 Zrotation Yrotation Xrotation
						JOINT Head
						{
							OFFSET 0.000000 1.667000 -0.240000
							CHANNELS 3 Zrotation Yrotation Xrotation
							End Site
							{
								OFFSET 0.000000 0.000000 0.000000
							}
						}
					}
				}
				JOINT LeftShoulder
				{
					OFFSET 0.000000 0.000000 0.000000
					CHANNELS 3 Zrotation Yrotation Xrotation
					JOINT LeftArm
					{
						OFFSET 2.700000 1.550000 -0.730000
						CHANNELS 3 Zrotation Yrotation Xrotation
						JOINT LeftForeArm
						{
							OFFSET 5.450000 0.000000 0.000000
							CHANNELS 3 Zrotation Yrotation Xrotation
							JOINT LeftHand
							{
								OFFSET 3.450000 0.000000 0.000000
								CHANNELS 3 Zrotation Yrotation Xrotation
								JOINT LeftHandIndex1
								{
									OFFSET 0.750000 0.000000 0.000000
									CHANNELS 3 Zrotation Yrotation Xrotation
									End Site
									{
										OFFSET 0.000000 0.000000 0.000000
									}
								}
							}
						}
					}
				}
				JOINT RightShoulder
				{
					OFFSET 0.000000 0.000000 0.000000
					CHANNELS 3 Zrotation Yrotation Xrotation
					JOINT RightArm
					{
						OFFSET -2.700000 1.550000 -0.730000
						CHANNELS 3 Zrotation Yrotation Xrotation
						JOINT RightForeArm
						{
							OFFSET -5.450000 0.000000 0.000000
							CHANNELS 3 Zrotation Yrotation Xrotation
							JOINT RightHand
							{
								OFFSET -3.450000 0.000000 0.000000
								CHANNELS 3 Zrotation Yrotation Xrotation
								JOINT RightHandIndex1
								{
									OFFSET -0.750000 0.000000 0.000000
									CHANNELS 3 Zrotation Yrotation Xrotation
									End Site
									{
										OFFSET 0.000000 0.000000 0.000000
									}
								}
							}
						}
					}
				}
			}
		}
	}
}
MOTION
Frames: 10
Frame Time: 0.016667
9.751390 15.076220 -20.925540 3.165362 -4.446426 -2.685798 -15.091586 12.263443 1.694715 34.211461 -1.274825 -1.637937 -0.603352 9.939713 26.279397 0.443145 7.229812 1.953969 0.248960 0.214580 0.143490 18.773566 -8.051541 6.234940 -48.669279 -4.887046 -38.331752 31.361215 -11.107450 12.945115 -0.635735 -7.126633 1.554957 0.137230 -0.027540 0.146050 -4.319358 -1.872365 -9.322543 22.572531 -6.140745 13.175858 -7.188768 -2.928116 5.254810 4.561264 2.469759 -14.188848 1.815670 -15.460739 32.488428 -4.418200 -14.488450 -8.345540 -25.822064 -24.882223 7.907852 -9.536114 -10.052496 -1.363134 9.423725 -13.482523 -0.849474 -3.680031 3.104420 0.068520 -0.028550 0.082440 0.085810 14.944083 25.099453 9.029431 1.445916 14.540715 -5.251276 -22.853842 7.104538 -2.432581 2.776744 -1.480026 0.075810 0.048790 -0.072990 0.048760 
9.673610 15.086040 -20.890730 3.146787 -4.010654 -2.530923 -15.090547 12.190557 1.703421 34.593467 -1.419138 -1.337419 -0.509065 9.645646 24.856360 0.416598 7.127862 1.992423 0.245000 0.203420 0.146680 18.792979 -7.981518 6.276761 -49.125924 -5.175671 -38.544898 32.869297 -11.859527 13.770600 -0.680803 -7.358054 1.474405 0.137340 -0.023230 0.151500 -4.346439 -1.882820 -9.327931 22.835108 -6.520546 12.954853 -7.592752 -3.210859 5.461970 4.631937 2.373618 -14.149954 1.694627 -15.486501 32.034589 -4.729290 -14.427570 -8.261760 -25.840950 -24.760377 7.877079 -9.266358 -9.793439 -1.370434 9.634514 -13.020265 -0.867405 -3.700815 3.107285 0.065380 -0.021000 0.073120 0.077320 14.771422 24.927809 9.110749 1.260485 14.391270 -4.989421 -22.146624 6.454079 -2.253809 2.783929 -1.474041 0.071540 0.045370 -0.063460 0.042530 
9.437030 15.110740 -20.817880 3.027247 -3.599493 -2.376937 -15.098567 12.110809 1.771495 35.543717 -1.611136 -0.555836 0.146651 8.961156 21.836390 0.409840 6.892640 2.074753 0.249310 0.204620 0.150900 18.801108 -7.816926 6.363611 -49.602367 -5.137016 -39.082647 36.488942 -13.357517 15.334714 -0.807928 -7.733092 1.361717 0.123570 -0.049150 0.150670 -4.341483 -2.041911 -9.392072 23.427910 -7.111575 13.228899 -8.472075 -3.247376 5.383312 4.675307 1.706940 -14.512661 0.423064 -15.214787 32.201687 -4.305320 -14.561830 -9.357320 -25.011111 -24.293933 7.814770 -9.123408 -8.798540 -1.458576 9.869883 -13.325480 -0.876708 -3.671272 3.101687 0.092070 -0.051610 0.095330 0.071220 13.790469 24.959178 9.621176 1.692779 13.704025 -4.691047 -21.652595 5.142968 -1.941869 2.817788 -1.447900 0.082310 0.039790 -0.063350 0.039710 
9.132240 15.160190 -20.720070 2.905159 -3.274705 -1.924189 -15.099130 12.010164 1.907703 36.107458 -1.855453 0.527378 0.865515 8.030879 17.337080 0.414382 6.612526 2.198013 0.223780 0.165720 0.143320 18.801417 -7.645358 6.442038 -49.977090 -4.668086 -38.595716 40.775571 -14.167746 15.173975 -0.918742 -7.987923 1.299417 0.093560 -0.052570 0.145280 -4.336317 -2.210783 -9.482771 23.928502 -7.485033 13.039030 -9.095585 -3.188560 4.774587 4.640752 0.977788 -14.920275 -0.974857 -14.638301 32.632362 -4.558950 -14.315210 -9.289840 -25.285539 -23.724883 7.988655 -8.612185 -6.757590 -1.442305 10.818705 -11.586696 -0.865782 -3.684030 3.084306 0.107870 -0.061370 0.095280 0.060690 14.046717 25.134637 9.960522 2.086098 13.130930 -4.664208 -21.686722 3.927290 -1.714226 2.853019 -1.429487 0.075170 0.038210 -0.050970 0.033240 
8.813070 15.208870 -20.617340 2.741199 -3.117517 -1.548210 -15.117632 11.813239 2.197289 37.006896 -2.129619 1.545011 0.660935 7.470516 12.668433 0.472216 6.534668 2.244292 0.213960 0.143360 0.156590 18.788918 -7.438142 6.436103 -49.786586 -3.922819 -37.588199 45.124481 -14.625709 14.379973 -1.035029 -8.121845 1.272757 0.065460 -0.085280 0.135180 -4.299940 -2.370110 -9.604213 24.536073 -7.973868 12.904290 -9.723336 -3.170517 4.322418 4.675322 0.125040 -15.416423 -2.583317 -14.266660 33.202360 -4.890390 -14.201170 -9.849580 -24.376746 -22.569961 8.235901 -8.706164 -3.452641 -1.310017 9.789938 -12.334433 -0.694073 -3.622523 3.078584 0.140330 -0.095240 0.117430 0.049330 13.021218 24.953313 10.326642 2.778268 12.757631 -4.136406 -20.412577 3.191131 -1.382475 2.889384 -1.373874 0.075260 0.031690 -0.055030 0.022280 
8.487420 15.257040 -20.505070 2.689799 -2.622062 -1.115943 -15.136277 11.664562 2.476124 37.252198 -2.495511 2.024072 1.041556 6.738803 8.317419 0.558190 6.413240 2.307868 0.189660 0.117200 0.138100 18.761543 -7.309568 6.369093 -48.970672 -3.225983 -36.554237 48.367787 -15.081279 13.919351 -1.116244 -8.204277 1.266107 0.026380 -0.101180 0.129460 -4.238295 -2.528591 -9.701968 24.510246 -8.624304 12.756673 -10.168753 -3.441008 3.556144 4.568763 -0.358238 -15.907052 -3.507707 -14.005939 33.499884 -4.554130 -14.288980 -9.676030 -23.613924 -21.339544 8.738071 -9.167549 0.166644 -0.822541 8.950996 -9.426130 -0.409768 -3.611905 3.072503 0.142950 -0.117200 0.126900 0.047430 12.342498 24.359424 10.538847 3.174383 12.107433 -3.553150 -18.799614 3.502249 -1.139245 2.911922 -1.323474 0.090100 0.009730 -0.059020 0.032350 
8.140440 15.314960 -20.405710 3.112874 -2.557554 -0.371644 -15.180373 11.461737 2.779666 36.945435 -2.849445 2.384021 0.187568 6.267173 4.215410 0.607513 6.427370 2.324426 0.177540 0.100950 0.126670 18.723851 -7.126858 6.331164 -48.160260 -2.698868 -35.949670 51.513417 -15.182630 13.040167 -1.189692 -8.239808 1.271739 0.012670 -0.097500 0.128010 -4.133255 -2.683303 -9.821179 23.530024 -8.733014 12.761837 -9.788212 -3.567256 2.568534 4.382360 -1.042236 -15.923078 -4.551079 -13.525896 32.846213 -4.184380 -13.982560 -10.442740 -23.037774 -20.103689 8.689755 -9.360317 2.212055 -0.612498 8.471747 -8.559116 -0.312365 -3.613889 3.054381 0.159650 -0.124980 0.128890 0.045160 12.198655 23.746068 10.581705 2.782141 11.480112 -3.290765 -17.920257 3.056545 -0.917325 2.918997 -1.282566 0.083950 0.014720 -0.048760 0.030450 
7.826260 15.383970 -20.312350 3.279435 -2.428638 -0.002403 -15.192470 11.297469 2.964813 36.207038 -3.027245 2.391154 -0.887138 5.962234 1.590166 0.614410 6.414681 2.335820 0.187680 0.113790 0.141050 18.706780 -7.130516 6.210495 -46.523087 -2.182662 -35.512602 53.130783 -15.594475 13.133005 -1.238952 -8.267725 1.263390 0.024260 -0.106310 0.126930 -4.101687 -2.581739 -9.808432 23.042729 -8.976915 12.742977 -10.198918 -3.711437 2.676961 4.415877 -0.864846 -15.834007 -3.831251 -13.611125 31.198994 -3.825020 -13.486190 -11.654600 -21.952161 -19.138832 8.640929 -9.000382 3.334560 -0.296961 8.009901 -5.906709 -0.213701 -3.654986 3.019068 0.172340 -0.129890 0.135760 0.039320 10.963861 22.571062 10.749082 3.696369 10.400805 -2.778511 -17.047506 3.815509 -0.843368 2.884309 -1.270367 0.078020 0.017600 -0.050940 0.019270 
7.512010 15.455690 -20.220410 3.649117 -2.387780 0.232586 -15.186766 11.264411 3.016743 34.787928 -2.959137 1.748653 -2.131023 5.771235 0.348737 0.591200 6.305749 2.389423 0.180840 0.107590 0.141670 18.688153 -7.264377 6.053618 -44.160975 -1.549699 -35.547397 53.386743 -16.270762 14.109228 -1.246592 -8.307097 1.255487 0.029570 -0.087890 0.133150 -4.090675 -2.451898 -9.706064 22.363728 -9.204750 12.620350 -10.241691 -4.010739 3.144942 4.310446 -1.132372 -15.734973 -3.750395 -13.973842 29.023684 -4.722430 -13.130820 -11.338430 -21.034775 -18.323660 8.689817 -8.472470 4.889744 -0.056965 6.898402 -4.393636 -0.145132 -3.699068 3.008572 0.148170 -0.102790 0.118160 0.041560 10.262962 21.804047 10.902018 3.574899 9.229449 -2.467497 -16.265475 4.991208 -0.854815 2.845958 -1.283052 0.071780 0.016320 -0.051590 0.019410 
7.188510 15.537950 -20.147080 3.864901 -2.879595 -0.068641 -15.173018 11.431196 3.020680 33.144098 -2.802733 1.573169 -2.646356 5.623161 -0.020688 0.565395 6.150541 2.458163 0.160630 0.081230 0.134890 18.630317 -7.520133 5.856725 -40.626591 -0.348100 -35.818138 52.499284 -17.189114 16.217033 -1.249231 -8.313573 1.260418 0.013740 -0.076980 0.130540 -4.032237 -2.392419 -9.626211 20.934098 -9.232263 13.415781 -10.096779 -4.115456 2.740543 4.158861 -0.579248 -15.775369 -2.798301 -13.537531 29.169677 -4.422830 -12.510110 -10.878040 -20.505462 -17.778305 8.913127 -7.587617 6.855136 0.045111 6.900519 -2.460036 -0.113886 -3.735155 2.981530 0.155100 -0.095450 0.113320 0.038130 9.938987 20.884651 10.808804 3.825629 8.649486 -2.177826 -15.272462 6.429501 -0.806591 2.809082 -1.257812 0.059190 0.017430 -0.044660 0.013530 
